<svg xmlns="http://www.w3.org/2000/svg" width="500" height="500" viewBox="0 0 500 500">
  <defs>
    <linearGradient id="bgGrad" x1="0%" y1="0%" x2="100%" y2="100%"><stop offset="0%" style="stop-color:#f8fafc;stop-opacity:1"/><stop offset="100%" style="stop-color:#e2e8f0;stop-opacity:1"/></linearGradient>
    <linearGradient id="jarGrad" x1="0%" y1="0%" x2="100%" y2="0%"><stop offset="0%" style="stop-color:#9ca3af;stop-opacity:1"/><stop offset="30%" style="stop-color:#d1d5db;stop-opacity:0.9"/><stop offset="70%" style="stop-color:#e5e7eb;stop-opacity:0.8"/><stop offset="100%" style="stop-color:#9ca3af;stop-opacity:1"/></linearGradient>
    <linearGradient id="liquidGrad" x1="0%" y1="0%" x2="100%" y2="100%"><stop offset="0%" style="stop-color:#a3e635;stop-opacity:0.7"/><stop offset="100%" style="stop-color:#65a30d;stop-opacity:0.5"/></linearGradient>
    <filter id="shadow" x="-15%" y="-5%" width="130%" height="130%"><feDropShadow dx="3" dy="12" stdDeviation="14" flood-color="#00000045"/></filter>
  </defs>
  <rect width="500" height="500" fill="url(#bgGrad)"/>
  <g filter="url(#shadow)">
    <rect x="160" y="340" width="180" height="110" rx="20" fill="#1f2937"/>
    <circle cx="220" cy="390" r="20" fill="#1a1a2e" stroke="#4b5563" stroke-width="2"/>
    <text x="220" y="395" font-size="14" font-weight="900" fill="#ef4444" font-family="Arial" text-anchor="middle">⏻</text>
    <circle cx="290" cy="390" r="22" fill="#111827" stroke="#4b5563" stroke-width="2"/>
    <text x="250" y="445" font-size="12" font-weight="900" fill="#374151" font-family="Arial" text-anchor="middle" letter-spacing="3">NINJA</text>
    <ellipse cx="250" cy="450" rx="100" ry="10" fill="#00000020"/>
  </g>
  <g filter="url(#shadow)">
    <path d="M 190 120 L 175 340 L 325 340 L 310 120 Z" fill="url(#jarGrad)"/>
    <path d="M 200 130 L 188 330 L 215 330 L 225 130 Z" fill="white" opacity="0.25"/>
    <path d="M 185 250 L 175 340 L 325 340 L 315 250 Z" fill="url(#liquidGrad)"/>
    <path d="M 185 250 Q 250 240 315 250" fill="none" stroke="#84cc16" stroke-width="2" opacity="0.8"/>
    <circle cx="220" cy="290" r="6" fill="white" opacity="0.3"/>
    <circle cx="270" cy="305" r="4" fill="white" opacity="0.25"/>
    <ellipse cx="250" cy="335" rx="50" ry="8" fill="#9ca3af"/>
    <line x1="210" y1="335" x2="290" y2="335" stroke="#6b7280" stroke-width="4"/>
    <line x1="250" y1="315" x2="250" y2="355" stroke="#6b7280" stroke-width="4"/>
    <text x="325" y="204" font-size="9" fill="#6b7280" font-family="Arial">1000ml</text>
    <text x="323" y="254" font-size="9" fill="#6b7280" font-family="Arial">750ml</text>
    <ellipse cx="250" cy="120" rx="60" ry="12" fill="#c0c4cc"/>
  </g>
  <g filter="url(#shadow)">
    <ellipse cx="250" cy="112" rx="62" ry="14" fill="#374151"/>
    <rect x="236" y="88" width="28" height="30" rx="14" fill="#374151"/>
    <rect x="246" y="75" width="8" height="18" rx="4" fill="#8b7355"/>
  </g>
  <path d="M 175 180 Q 148 185 145 220 Q 145 260 168 265 L 175 260" fill="none" stroke="#9ca3af" stroke-width="10" stroke-linecap="round"/>
  <text x="250" y="438" font-size="20" font-weight="700" fill="#1e293b" font-family="Arial, sans-serif" text-anchor="middle">Ninja BL610 Pro Blender</text>
  <text x="250" y="460" font-size="13" fill="#64748b" font-family="Arial, sans-serif" text-anchor="middle">1000W Professional · 72oz Jar · Crush Ice</text>
  <text x="250" y="481" font-size="12" fill="#94a3b8" font-family="Arial, sans-serif" text-anchor="middle">6 Speed Settings · BPA-Free · Dishwasher Safe</text>
</svg>
